<svg width="15" height="16" viewBox="0 0 15 16" fill="none" xmlns="http://www.w3.org/2000/svg">
<path d="M7.5 15.5C3.35404 15.5 0 12.1304 0 8C0 3.86957 3.35404 0.5 7.5 0.5C11.646 0.5 15 3.86957 15 8C15 12.1304 11.6304 15.5 7.5 15.5ZM7.5 1.41615C3.86646 1.41615 0.931677 4.36646 0.931677 8C0.931677 11.618 3.88199 14.5683 7.5 14.5683C11.118 14.5683 14.0683 11.618 14.0683 8C14.0683 4.36646 11.118 1.41615 7.5 1.41615Z" fill="currentColor"/>
<path d="M7.57764 4.00928C6.1646 4.00928 5 5.15835 5 6.58692C5 6.81984 5.18634 7.00617 5.41925 7.00617C5.65217 7.00617 5.83851 6.81984 5.83851 6.58692C5.83851 5.62418 6.61491 4.84779 7.57764 4.84779C8.54037 4.84779 9.31677 5.62418 9.31677 6.58692C9.31677 7.54965 8.54037 8.32605 7.57764 8.32605C7.34472 8.32605 7.15838 8.51238 7.15838 8.7453V10.0031C7.15838 10.236 7.34472 10.4223 7.57764 10.4223C7.81056 10.4223 7.99689 10.236 7.99689 10.0031V9.11797C9.2236 8.91611 10.1553 7.86021 10.1553 6.57139C10.1553 5.15835 9.00621 4.00928 7.57764 4.00928Z" fill="currentColor"/>
<path d="M7.57834 12.2858C7.90423 12.2858 8.16841 12.0217 8.16841 11.6958C8.16841 11.3699 7.90423 11.1057 7.57834 11.1057C7.25246 11.1057 6.98828 11.3699 6.98828 11.6958C6.98828 12.0217 7.25246 12.2858 7.57834 12.2858Z" fill="currentColor"/>
</svg>
