<svg width="34" height="35" viewBox="0 0 34 35" fill="none" xmlns="http://www.w3.org/2000/svg">
<path d="M10.9798 4.04199C10.9798 3.7602 10.8679 3.48995 10.6686 3.29069C10.4694 3.09143 10.1991 2.97949 9.91734 2.97949C9.63555 2.97949 9.3653 3.09143 9.16604 3.29069C8.96678 3.48995 8.85484 3.7602 8.85484 4.04199V6.28033C6.81484 6.44324 5.47751 6.84274 4.49434 7.82733C3.50976 8.81049 3.11026 10.1492 2.94592 12.1878H31.0554C30.8911 10.1478 30.4916 8.81049 29.507 7.82733C28.5238 6.84274 27.1851 6.44324 25.1465 6.27891V4.04199C25.1465 3.7602 25.0346 3.48995 24.8353 3.29069C24.636 3.09143 24.3658 2.97949 24.084 2.97949C23.8022 2.97949 23.532 3.09143 23.3327 3.29069C23.1334 3.48995 23.0215 3.7602 23.0215 4.04199V6.18541C22.0794 6.16699 21.0226 6.16699 19.834 6.16699H14.1673C12.9788 6.16699 11.9219 6.16699 10.9798 6.18541V4.04199Z" fill="#1C1C1C"/>
<path fill-rule="evenodd" clip-rule="evenodd" d="M2.83411 17.5C2.83411 16.3114 2.83411 15.2546 2.85252 14.3125H31.149C31.1674 15.2546 31.1674 16.3114 31.1674 17.5V20.3333C31.1674 25.6756 31.1674 28.3474 29.5071 30.0063C27.8482 31.6667 25.1764 31.6667 19.8341 31.6667H14.1674C8.82519 31.6667 6.15336 31.6667 4.49444 30.0063C2.83411 28.3474 2.83411 25.6756 2.83411 20.3333V17.5ZM24.0841 20.3333C24.4598 20.3333 24.8202 20.1841 25.0858 19.9184C25.3515 19.6527 25.5008 19.2924 25.5008 18.9167C25.5008 18.5409 25.3515 18.1806 25.0858 17.9149C24.8202 17.6493 24.4598 17.5 24.0841 17.5C23.7084 17.5 23.348 17.6493 23.0824 17.9149C22.8167 18.1806 22.6674 18.5409 22.6674 18.9167C22.6674 19.2924 22.8167 19.6527 23.0824 19.9184C23.348 20.1841 23.7084 20.3333 24.0841 20.3333ZM24.0841 26C24.4598 26 24.8202 25.8507 25.0858 25.5851C25.3515 25.3194 25.5008 24.9591 25.5008 24.5833C25.5008 24.2076 25.3515 23.8473 25.0858 23.5816C24.8202 23.3159 24.4598 23.1667 24.0841 23.1667C23.7084 23.1667 23.348 23.3159 23.0824 23.5816C22.8167 23.8473 22.6674 24.2076 22.6674 24.5833C22.6674 24.9591 22.8167 25.3194 23.0824 25.5851C23.348 25.8507 23.7084 26 24.0841 26ZM18.4174 18.9167C18.4174 19.2924 18.2682 19.6527 18.0025 19.9184C17.7368 20.1841 17.3765 20.3333 17.0008 20.3333C16.6251 20.3333 16.2647 20.1841 15.999 19.9184C15.7334 19.6527 15.5841 19.2924 15.5841 18.9167C15.5841 18.5409 15.7334 18.1806 15.999 17.9149C16.2647 17.6493 16.6251 17.5 17.0008 17.5C17.3765 17.5 17.7368 17.6493 18.0025 17.9149C18.2682 18.1806 18.4174 18.5409 18.4174 18.9167ZM18.4174 24.5833C18.4174 24.9591 18.2682 25.3194 18.0025 25.5851C17.7368 25.8507 17.3765 26 17.0008 26C16.6251 26 16.2647 25.8507 15.999 25.5851C15.7334 25.3194 15.5841 24.9591 15.5841 24.5833C15.5841 24.2076 15.7334 23.8473 15.999 23.5816C16.2647 23.3159 16.6251 23.1667 17.0008 23.1667C17.3765 23.1667 17.7368 23.3159 18.0025 23.5816C18.2682 23.8473 18.4174 24.2076 18.4174 24.5833ZM9.91744 20.3333C10.2932 20.3333 10.6535 20.1841 10.9192 19.9184C11.1849 19.6527 11.3341 19.2924 11.3341 18.9167C11.3341 18.5409 11.1849 18.1806 10.9192 17.9149C10.6535 17.6493 10.2932 17.5 9.91744 17.5C9.54172 17.5 9.18138 17.6493 8.91571 17.9149C8.65003 18.1806 8.50077 18.5409 8.50077 18.9167C8.50077 19.2924 8.65003 19.6527 8.91571 19.9184C9.18138 20.1841 9.54172 20.3333 9.91744 20.3333ZM9.91744 26C10.2932 26 10.6535 25.8507 10.9192 25.5851C11.1849 25.3194 11.3341 24.9591 11.3341 24.5833C11.3341 24.2076 11.1849 23.8473 10.9192 23.5816C10.6535 23.3159 10.2932 23.1667 9.91744 23.1667C9.54172 23.1667 9.18138 23.3159 8.91571 23.5816C8.65003 23.8473 8.50077 24.2076 8.50077 24.5833C8.50077 24.9591 8.65003 25.3194 8.91571 25.5851C9.18138 25.8507 9.54172 26 9.91744 26Z" fill="#1C1C1C"/>
</svg>
