<svg width="28" height="28" viewBox="0 0 28 28" fill="none" xmlns="http://www.w3.org/2000/svg">
<rect width="28" height="28" rx="6" transform="matrix(-1 0 0 1 28 0)" fill="#F3F3F3"/>
<path d="M9.82324 13.583C9.82324 13.4561 9.84863 13.3354 9.89941 13.2212C9.94596 13.1112 10.0221 13.0054 10.1279 12.9038L15.0093 8.12402C15.1743 7.96322 15.3753 7.88281 15.6123 7.88281C15.7646 7.88281 15.9064 7.9209 16.0376 7.99707C16.1688 8.07324 16.2746 8.1748 16.355 8.30176C16.4312 8.42871 16.4692 8.57259 16.4692 8.7334C16.4692 8.96615 16.3804 9.1735 16.2026 9.35547L11.8545 13.583L16.2026 17.8105C16.3804 17.9883 16.4692 18.1956 16.4692 18.4326C16.4692 18.5892 16.4312 18.731 16.355 18.8579C16.2746 18.9891 16.1688 19.0928 16.0376 19.1689C15.9064 19.2451 15.7646 19.2832 15.6123 19.2832C15.3753 19.2832 15.1743 19.2028 15.0093 19.042L10.1279 14.2622C10.0264 14.1606 9.9502 14.0549 9.89941 13.9448C9.84863 13.8348 9.82324 13.7142 9.82324 13.583Z" fill="#62616D"/>
</svg>
