<svg width="14" height="8" viewBox="0 0 14 8" fill="none" xmlns="http://www.w3.org/2000/svg">
<path d="M6.71191 7.81934C6.8584 7.81934 6.99756 7.79004 7.12939 7.73145C7.25635 7.67773 7.37842 7.58984 7.49561 7.46777L13.0107 1.83545C13.1963 1.64502 13.2891 1.41309 13.2891 1.13965C13.2891 0.963867 13.2451 0.800293 13.1572 0.648926C13.0693 0.497559 12.9521 0.375488 12.8057 0.282715C12.6592 0.194824 12.4932 0.150879 12.3076 0.150879C12.0391 0.150879 11.7998 0.253418 11.5898 0.458496L6.71191 5.47559L1.83398 0.458496C1.62891 0.253418 1.38965 0.150879 1.11621 0.150879C0.935547 0.150879 0.771973 0.194824 0.625488 0.282715C0.474121 0.375488 0.354492 0.497559 0.266602 0.648926C0.178711 0.800293 0.134766 0.963867 0.134766 1.13965C0.134766 1.41309 0.227539 1.64502 0.413086 1.83545L5.92822 7.46777C6.04541 7.58496 6.16748 7.67285 6.29443 7.73145C6.42139 7.79004 6.56055 7.81934 6.71191 7.81934Z" fill="#717D96"/>
</svg>
