<svg width="15" height="18" viewBox="0 0 15 18" fill="none" xmlns="http://www.w3.org/2000/svg">
<path d="M4.26291 15.8236C4.12574 15.8251 3.98982 15.7973 3.86429 15.742C3.73875 15.6867 3.62649 15.6052 3.53505 15.5029C3.37341 15.2918 3.2969 15.0277 3.32065 14.7629C3.3444 14.4981 3.46668 14.2518 3.66331 14.0729C3.9615 13.7522 4.80159 13.4059 5.76993 13.1109C5.9837 12.5594 6.20921 11.8818 6.44649 11.078C6.18004 10.4048 6.0283 9.69163 5.99759 8.96821C5.9527 8.10247 6.41443 7.60868 6.89218 7.567C7.27054 7.53493 7.71624 7.80427 7.79961 8.46801C7.83312 8.77322 7.80365 9.08206 7.71303 9.37543L7.59119 9.79547C7.47255 10.2123 7.35391 10.6291 7.23207 11.0364C7.47888 11.5848 7.81475 12.0886 8.22606 12.5274C8.67359 12.441 9.12697 12.3885 9.58238 12.3702C10.5155 12.3702 10.865 12.7935 11.006 13.0436C11.0875 13.1925 11.1267 13.3608 11.1194 13.5304C11.112 13.6999 11.0584 13.8643 10.9644 14.0055C10.8607 14.1543 10.7185 14.2721 10.553 14.3461C10.3874 14.4201 10.2049 14.4476 10.0249 14.4256C9.25475 14.2624 8.54855 13.8793 7.99199 13.3225C7.45652 13.4316 6.87615 13.5726 6.33106 13.7266C5.98797 14.5763 5.64809 15.1983 5.31462 15.4324C5.01331 15.6691 4.64565 15.8058 4.26291 15.8236ZM5.41081 14.0087C4.9755 14.1259 4.56566 14.3227 4.20199 14.5891C4.04166 14.7622 4.01922 14.9482 4.08976 15.0316C4.1603 15.1149 4.44568 15.1406 4.88816 14.8296C5.12031 14.5975 5.29872 14.3173 5.41081 14.0087ZM8.93789 13.159C9.27725 13.4271 9.6767 13.6087 10.1018 13.6881C10.1495 13.6978 10.1989 13.6943 10.2447 13.6779C10.2905 13.6615 10.3309 13.6328 10.3615 13.5951C10.3803 13.5647 10.3902 13.5298 10.3902 13.4941C10.3902 13.4584 10.3803 13.4234 10.3615 13.3931C10.3263 13.3258 10.1692 13.1141 9.58559 13.1109C9.36976 13.1167 9.15451 13.136 8.9411 13.1686L8.93789 13.159ZM6.92425 12.0368C6.82806 12.3286 6.73507 12.6107 6.64208 12.8801C6.89539 12.8127 7.1487 12.7518 7.3988 12.6973C7.22718 12.4878 7.06972 12.2672 6.92746 12.0368H6.92425ZM6.95311 8.3141C6.87936 8.3141 6.71262 8.5129 6.73186 8.95538C6.74587 9.23735 6.77908 9.51802 6.83126 9.79547C6.84729 9.73455 6.86653 9.67683 6.88257 9.61591L7.00441 9.19266C7.06648 8.99595 7.08829 8.78876 7.06854 8.58344C7.04289 8.37823 6.97235 8.3141 6.95631 8.3141H6.95311Z" fill="currentColor"/>
<path d="M6.92289 2.90783C6.94964 2.88044 6.97031 2.84772 6.98357 2.81181C6.99683 2.7759 7.00238 2.7376 6.99985 2.69941C7.00198 2.66125 6.99625 2.62306 6.98301 2.58721C6.96978 2.55135 6.94931 2.51861 6.92289 2.49099C6.89063 2.46393 6.85335 2.44349 6.81319 2.43084C6.77303 2.41818 6.73077 2.41356 6.68882 2.41724H6.39062V2.97195H6.68882C6.77224 2.98207 6.85629 2.95905 6.92289 2.90783Z" fill="currentColor"/>
<path d="M9.30571 3.0901C9.31474 3.00155 9.30394 2.91211 9.2741 2.82825C9.24426 2.7444 9.19612 2.66824 9.13318 2.60531C9.07025 2.54237 8.99409 2.49424 8.91024 2.46439C8.82638 2.43455 8.73694 2.42375 8.64839 2.43278H8.38867V3.741H8.64839C8.73697 3.74799 8.82604 3.73649 8.90994 3.70723C8.99383 3.67798 9.07074 3.63161 9.13577 3.57106C9.19549 3.50678 9.24139 3.43093 9.27062 3.3482C9.29985 3.26548 9.3118 3.17763 9.30571 3.0901Z" fill="currentColor"/>
<path d="M12.8257 0.0214844H3.71626L0 3.73774V16.3743C0 16.7995 0.16891 17.2073 0.469571 17.5079C0.770233 17.8086 1.17802 17.9775 1.60322 17.9775H12.8257C13.2509 17.9775 13.6587 17.8086 13.9594 17.5079C14.26 17.2073 14.429 16.7995 14.429 16.3743V1.6247C14.429 1.1995 14.26 0.791717 13.9594 0.491056C13.6587 0.190394 13.2509 0.0214844 12.8257 0.0214844ZM10.174 1.96458H11.6394V2.40387H10.7223V2.87842H11.4085V3.30487H10.7223V4.2155H10.174V1.96458ZM7.84294 1.96458H8.68623C8.90197 1.96036 9.11548 2.00878 9.30828 2.10567C9.48019 2.19637 9.62259 2.33432 9.7187 2.50326C9.8199 2.68197 9.87087 2.88473 9.8662 3.09004C9.87087 3.29536 9.8199 3.49811 9.7187 3.67682C9.62448 3.84834 9.48018 3.98705 9.30507 4.07442C9.11387 4.17255 8.90107 4.22106 8.68623 4.2155H7.85576L7.84294 1.96458ZM5.84212 1.96458H6.73031C6.88718 1.96046 7.04292 1.99227 7.18562 2.05757C7.30114 2.11475 7.39793 2.20375 7.46458 2.31409C7.52465 2.42714 7.55607 2.5532 7.55607 2.68122C7.55607 2.80924 7.52465 2.93531 7.46458 3.04836C7.39927 3.15942 7.3036 3.24953 7.18883 3.30808C7.04557 3.37907 6.88688 3.41323 6.7271 3.40748H6.39042V4.2155H5.84212V1.96458ZM3.52708 1.11488V2.80146C3.52708 3.22792 3.04611 3.54856 2.64531 3.54856H1.09339L3.52708 1.11488ZM13.7877 16.3743C13.7877 16.6294 13.6863 16.8741 13.5059 17.0545C13.3255 17.2349 13.0809 17.3362 12.8257 17.3362H1.60322C1.3481 17.3362 1.10343 17.2349 0.92303 17.0545C0.742633 16.8741 0.641287 16.6294 0.641287 16.3743V6.11371H13.7877V16.3743Z" fill="currentColor"/>
</svg>
