<svg viewBox="0 0 20 20" fill="none" xmlns="http://www.w3.org/2000/svg">
<path d="M9.99935 1.66602C5.39935 1.66602 1.66602 5.39935 1.66602 9.99935C1.66602 14.5993 5.39935 18.3327 9.99935 18.3327C14.5993 18.3327 18.3327 14.5993 18.3327 9.99935C18.3327 5.39935 14.5993 1.66602 9.99935 1.66602ZM13.866 7.33268C13.741 8.64935 13.1993 11.8493 12.9243 13.3243C12.8077 13.9493 12.5743 14.1577 12.3577 14.1827C11.8743 14.2243 11.5077 13.866 11.041 13.5577C10.3077 13.0744 9.89102 12.7744 9.18268 12.3077C8.35768 11.766 8.89102 11.466 9.36602 10.9827C9.49102 10.8577 11.6243 8.91602 11.666 8.74102C11.6718 8.71451 11.671 8.68699 11.6638 8.66085C11.6565 8.63471 11.643 8.61074 11.6243 8.59102C11.5743 8.54935 11.5077 8.56602 11.4493 8.57435C11.3743 8.59102 10.2077 9.36602 7.93268 10.8993C7.59935 11.1243 7.29935 11.241 7.03268 11.2327C6.73268 11.2243 6.16602 11.066 5.74102 10.9243C5.21602 10.7577 4.80768 10.666 4.84102 10.3743C4.85768 10.2243 5.06602 10.0743 5.45768 9.91602C7.89102 8.85768 9.50768 8.15768 10.316 7.82435C12.6327 6.85768 13.1077 6.69102 13.4243 6.69102C13.491 6.69102 13.6493 6.70768 13.7493 6.79102C13.8327 6.85768 13.8577 6.94935 13.866 7.01602C13.8577 7.06602 13.8743 7.21602 13.866 7.33268Z" fill="#1C1C1C"/>
</svg>
