<svg viewBox="0 0 18 15" fill="none" xmlns="http://www.w3.org/2000/svg">
<path d="M1.17828 8.21905C0.940568 7.77079 0.940572 7.22908 1.17829 6.78082C2.68889 3.93236 5.62521 2 8.99997 2C12.3748 2 15.3111 3.93242 16.8217 6.78095C17.0594 7.22922 17.0594 7.77092 16.8217 8.21918C15.3111 11.0676 12.3748 13 9.00003 13C5.62521 13 2.68886 11.0676 1.17828 8.21905Z" stroke="#242333" stroke-width="1.3"/>
<ellipse cx="9.00065" cy="7.5" rx="2.66667" ry="2.75" stroke="#242333" stroke-width="1.3"/>
<path d="M16.8217 6.85025L17.3886 6.53227L16.8217 6.85025ZM16.8217 8.21003L17.3886 8.52802L16.8217 8.21003ZM1.17829 6.85013L1.7452 7.16811L1.17829 6.85013ZM1.17828 8.20991L0.611371 8.52789H0.611371L1.17828 8.20991ZM15.6701 4.32557C15.4099 4.07822 14.9985 4.08863 14.7511 4.3488C14.5038 4.60898 14.5142 5.02041 14.7744 5.26775L15.6701 4.32557ZM6.93542 11.8275C6.58716 11.7404 6.23425 11.9521 6.14718 12.3004C6.06012 12.6487 6.27186 13.0016 6.62013 13.0886L6.93542 11.8275ZM11.3147 2.62573L11.1504 3.25463L11.3147 2.62573ZM4.62013 11.6111L4.30653 12.1805L4.98828 11.0754L4.62013 11.6111ZM1.7452 7.16811C3.14236 4.67725 5.86353 2.98008 8.99997 2.98008V1.68008C5.38688 1.68008 2.23542 3.63682 0.611387 6.53214L1.7452 7.16811ZM16.2548 7.89205C14.8576 10.3829 12.1365 12.0801 9.00003 12.0801V13.3801C12.6131 13.3801 15.7646 11.4233 17.3886 8.52802L16.2548 7.89205ZM16.2548 7.16823C16.3817 7.39453 16.3817 7.66575 16.2548 7.89205L17.3886 8.52802C17.7371 7.9067 17.7371 7.1536 17.3886 6.53227L16.2548 7.16823ZM0.611387 6.53214C0.262877 7.15346 0.262871 7.90656 0.611371 8.52789L1.7452 7.89193C1.61827 7.66563 1.61827 7.39441 1.7452 7.16811L0.611387 6.53214ZM14.7744 5.26775C15.3601 5.82463 15.8603 6.46496 16.2548 7.16823L17.3886 6.53227C16.9295 5.71375 16.3486 4.97058 15.6701 4.32557L14.7744 5.26775ZM9.00003 12.0801C8.28625 12.0801 7.59456 11.9922 6.93542 11.8275L6.62013 13.0886C7.38169 13.279 8.17925 13.3801 9.00003 13.3801V12.0801ZM8.99997 2.98008C9.74477 2.98008 10.4655 3.07571 11.1504 3.25463L11.479 1.99684C10.6876 1.7901 9.85645 1.68008 8.99997 1.68008V2.98008ZM3.58731 10.1164C2.84428 9.48927 2.2186 8.73594 1.7452 7.89193L0.611371 8.52789C1.16232 9.51016 1.8888 10.384 2.74879 11.1099L3.58731 10.1164ZM4.93373 11.0418C4.45271 10.7768 4.00184 10.4663 3.58731 10.1164L2.74879 11.1099C3.22867 11.5149 3.75031 11.8741 4.30653 12.1805L4.93373 11.0418ZM2.79989 11.1488L4.25197 12.1468L4.98828 11.0754L3.53621 10.0775L2.79989 11.1488ZM11.1504 3.25463C11.79 3.42174 12.3989 3.66164 12.967 3.96458L13.5787 2.81747C12.9217 2.46715 12.2179 2.1899 11.479 1.99684L11.1504 3.25463Z" fill="#242333"/>
<path d="M6.33398 7.53164C6.33398 6.0957 7.52789 4.93164 9.00065 4.93164" stroke="#242333" stroke-width="1.3" stroke-linecap="round"/>
</svg>
